<?xml version="1.0" encoding="UTF-8"?>
<svg version="1.1" xmlns="http://www.w3.org/2000/svg" width="1254" height="1254">
<path d="M0,0 L1254,0 L1254,1254 L0,1254 Z " fill="#FDFCFD" transform="translate(0,0)"/>
<path d="M0,0 L192,0 L192,1 L201,1 L201,2 L209,2 L209,3 L212,3 L212,4 L217,4 L217,5 L220,5 L220,6 L225,6 L225,7 L229,7 L229,8 L232,8 L232,9 L235,9 L235,10 L238,10 L238,11 L239,11 L239,12 L241,12 L241,13 L245,13 L245,14 L247,14 L247,15 L248,15 L248,16 L250,16 L250,17 L252,17 L252,18 L254,18 L254,19 L256,19 L256,20 L257,20 L257,21 L259,21 L259,22 L261,22 L261,23 L263,23 L263,24 L264,24 L264,25 L265,25 L265,26 L267,26 L267,27 L268,27 L268,28 L269,28 L269,29 L271,29 L271,30 L272,30 L272,31 L273,31 L273,32 L275,32 L275,33 L276,33 L276,34 L277,34 L277,35 L278,35 L278,36 L279,36 L279,37 L281,37 L281,38 L282,38 L282,39 L283,39 L283,40 L284,40 L284,41 L285,41 L285,42 L286,42 L286,43 L287,43 L287,44 L288,44 L288,45 L289,45 L289,46 L290,46 L290,47 L291,47 L291,48 L292,48 L292,50 L293,50 L293,51 L294,51 L294,52 L295,52 L295,53 L296,53 L296,55 L297,55 L297,56 L298,56 L298,57 L299,57 L299,58 L300,58 L300,60 L301,60 L301,61 L302,61 L302,62 L303,62 L303,64 L304,64 L304,66 L305,66 L305,67 L306,67 L306,69 L307,69 L307,70 L308,70 L308,72 L309,72 L309,74 L310,74 L310,76 L311,76 L311,78 L312,78 L312,79 L313,79 L313,81 L314,81 L314,84 L315,84 L315,86 L316,86 L316,88 L317,88 L317,90 L318,90 L318,92 L319,92 L319,95 L320,95 L320,98 L321,98 L321,101 L322,101 L322,104 L323,104 L323,109 L324,109 L324,111 L325,111 L325,115 L326,115 L326,120 L327,120 L327,130 L328,130 L328,134 L329,134 L329,162 L328,162 L328,166 L327,166 L327,175 L326,175 L326,179 L325,179 L325,183 L324,183 L324,186 L323,186 L323,190 L322,190 L322,193 L321,193 L321,196 L320,196 L320,199 L319,199 L319,201 L318,201 L318,204 L317,204 L317,207 L316,207 L316,209 L315,209 L315,211 L314,211 L314,213 L313,213 L313,215 L312,215 L312,217 L311,217 L311,219 L310,219 L310,220 L309,220 L309,222 L308,222 L308,224 L307,224 L307,225 L306,225 L306,227 L305,227 L305,228 L304,228 L304,230 L303,230 L303,231 L302,231 L302,233 L301,233 L301,234 L300,234 L300,235 L299,235 L299,237 L298,237 L298,238 L297,238 L297,240 L296,240 L296,241 L295,241 L295,242 L294,242 L294,243 L293,243 L293,244 L292,244 L292,245 L291,245 L291,246 L290,246 L290,247 L289,247 L289,249 L288,249 L288,250 L287,250 L287,251 L286,251 L286,252 L285,252 L285,253 L284,253 L284,254 L283,254 L283,255 L282,255 L282,256 L281,256 L281,257 L280,257 L280,258 L279,258 L279,259 L278,259 L278,260 L276,260 L276,261 L275,261 L275,262 L274,262 L274,263 L273,263 L273,264 L272,264 L272,265 L270,265 L270,266 L269,266 L269,267 L268,267 L268,268 L266,268 L266,269 L265,269 L265,270 L264,270 L264,271 L262,271 L262,272 L261,272 L261,273 L259,273 L259,274 L258,274 L258,275 L256,275 L256,276 L254,276 L254,277 L253,277 L253,278 L251,278 L251,279 L250,279 L250,280 L251,280 L251,282 L252,282 L252,283 L253,283 L253,284 L254,284 L254,285 L255,285 L255,287 L256,287 L256,288 L257,288 L257,289 L258,289 L258,290 L259,290 L259,291 L260,291 L260,293 L261,293 L261,294 L262,294 L262,295 L263,295 L263,296 L264,296 L264,298 L265,298 L265,299 L266,299 L266,300 L267,300 L267,301 L268,301 L268,302 L269,302 L269,304 L270,304 L270,305 L271,305 L271,306 L272,306 L272,308 L273,308 L273,309 L274,309 L274,310 L275,310 L275,311 L276,311 L276,312 L277,312 L277,314 L278,314 L278,315 L279,315 L279,316 L280,316 L280,317 L281,317 L281,319 L282,319 L282,320 L283,320 L283,321 L284,321 L284,322 L285,322 L285,323 L286,323 L286,325 L287,325 L287,326 L288,326 L288,327 L289,327 L289,328 L290,328 L290,330 L291,330 L291,331 L292,331 L292,332 L293,332 L293,333 L294,333 L294,335 L295,335 L295,336 L296,336 L296,337 L297,337 L297,338 L298,338 L298,339 L299,339 L299,341 L300,341 L300,342 L301,342 L301,343 L302,343 L302,344 L303,344 L303,346 L304,346 L304,347 L305,347 L305,348 L306,348 L306,349 L307,349 L307,351 L308,351 L308,352 L309,352 L309,353 L310,353 L310,354 L311,354 L311,355 L312,355 L312,357 L313,357 L313,358 L314,358 L314,359 L315,359 L315,360 L316,360 L316,362 L317,362 L317,363 L318,363 L318,364 L319,364 L319,365 L320,365 L320,366 L321,366 L321,368 L322,368 L322,369 L323,369 L323,370 L324,370 L324,371 L325,371 L325,373 L326,373 L326,374 L327,374 L327,375 L328,375 L328,376 L329,376 L329,377 L330,377 L330,379 L331,379 L331,380 L332,380 L332,381 L333,381 L333,382 L334,382 L334,384 L335,384 L335,385 L336,385 L336,386 L337,386 L337,387 L338,387 L338,388 L339,388 L339,390 L340,390 L340,391 L341,391 L341,392 L342,392 L342,393 L343,393 L343,395 L344,395 L344,396 L345,396 L345,397 L346,397 L346,398 L347,398 L347,399 L348,399 L348,401 L349,401 L349,402 L350,402 L350,403 L351,403 L351,405 L352,405 L352,406 L353,406 L353,407 L354,407 L354,408 L355,408 L355,409 L356,409 L356,411 L357,411 L357,412 L358,412 L358,413 L359,413 L359,414 L360,414 L360,416 L361,416 L361,417 L362,417 L362,418 L363,418 L363,419 L364,419 L364,421 L365,421 L365,422 L366,422 L366,423 L367,423 L367,424 L368,424 L368,426 L369,426 L369,427 L370,427 L370,428 L371,428 L371,429 L372,429 L372,430 L373,430 L373,434 L372,434 L372,436 L371,436 L371,437 L368,437 L368,438 L286,438 L286,437 L280,437 L280,436 L278,436 L278,435 L276,435 L276,434 L275,434 L275,433 L274,433 L274,432 L273,432 L273,431 L272,431 L272,429 L271,429 L271,428 L270,428 L270,427 L269,427 L269,426 L268,426 L268,425 L267,425 L267,423 L266,423 L266,422 L265,422 L265,421 L264,421 L264,420 L263,420 L263,418 L262,418 L262,417 L261,417 L261,416 L260,416 L260,415 L259,415 L259,414 L258,414 L258,412 L257,412 L257,411 L256,411 L256,410 L255,410 L255,409 L254,409 L254,407 L253,407 L253,406 L252,406 L252,405 L251,405 L251,404 L250,404 L250,403 L249,403 L249,401 L248,401 L248,400 L247,400 L247,399 L246,399 L246,398 L245,398 L245,397 L244,397 L244,396 L243,396 L243,394 L242,394 L242,393 L241,393 L241,392 L240,392 L240,391 L239,391 L239,389 L238,389 L238,388 L237,388 L237,387 L236,387 L236,386 L235,386 L235,385 L234,385 L234,384 L233,384 L233,383 L232,383 L232,381 L231,381 L231,380 L230,380 L230,379 L229,379 L229,378 L228,378 L228,377 L227,377 L227,375 L226,375 L226,374 L225,374 L225,373 L224,373 L224,372 L223,372 L223,371 L222,371 L222,369 L221,369 L221,368 L220,368 L220,367 L219,367 L219,366 L218,366 L218,364 L217,364 L217,363 L216,363 L216,362 L215,362 L215,361 L214,361 L214,360 L213,360 L213,359 L212,359 L212,357 L211,357 L211,356 L210,356 L210,355 L209,355 L209,354 L208,354 L208,353 L207,353 L207,351 L206,351 L206,350 L205,350 L205,349 L204,349 L204,348 L203,348 L203,346 L202,346 L202,345 L201,345 L201,344 L200,344 L200,343 L199,343 L199,342 L198,342 L198,341 L197,341 L197,339 L196,339 L196,338 L195,338 L195,337 L194,337 L194,336 L193,336 L193,335 L192,335 L192,333 L191,333 L191,332 L190,332 L190,331 L189,331 L189,330 L188,330 L188,329 L187,329 L187,327 L185,327 L185,329 L184,329 L184,330 L183,330 L183,331 L182,331 L182,332 L181,332 L181,333 L180,333 L180,334 L179,334 L179,335 L178,335 L178,336 L177,336 L177,337 L176,337 L176,338 L175,338 L175,339 L174,339 L174,340 L173,340 L173,341 L172,341 L172,342 L171,342 L171,343 L170,343 L170,344 L169,344 L169,345 L168,345 L168,346 L167,346 L167,347 L166,347 L166,349 L165,349 L165,350 L164,350 L164,351 L163,351 L163,352 L162,352 L162,353 L161,353 L161,354 L160,354 L160,355 L159,355 L159,356 L158,356 L158,357 L157,357 L157,358 L156,358 L156,359 L155,359 L155,360 L154,360 L154,361 L153,361 L153,362 L152,362 L152,363 L151,363 L151,364 L150,364 L150,366 L149,366 L149,367 L148,367 L148,368 L147,368 L147,369 L146,369 L146,370 L145,370 L145,371 L144,371 L144,372 L143,372 L143,373 L142,373 L142,374 L141,374 L141,375 L140,375 L140,376 L139,376 L139,377 L138,377 L138,378 L137,378 L137,379 L136,379 L136,380 L135,380 L135,381 L134,381 L134,383 L133,383 L133,384 L132,384 L132,385 L131,385 L131,386 L130,386 L130,387 L129,387 L129,388 L128,388 L128,389 L127,389 L127,390 L126,390 L126,391 L125,391 L125,392 L124,392 L124,393 L123,393 L123,394 L122,394 L122,395 L121,395 L121,396 L120,396 L120,397 L119,397 L119,398 L118,398 L118,400 L117,400 L117,401 L116,401 L116,402 L115,402 L115,403 L114,403 L114,404 L113,404 L113,405 L112,405 L112,406 L111,406 L111,407 L110,407 L110,408 L109,408 L109,409 L108,409 L108,410 L107,410 L107,411 L106,411 L106,412 L105,412 L105,413 L104,413 L104,414 L103,414 L103,415 L102,415 L102,417 L101,417 L101,418 L100,418 L100,419 L99,419 L99,420 L98,420 L98,421 L97,421 L97,422 L96,422 L96,423 L95,423 L95,424 L94,424 L94,425 L93,425 L93,426 L92,426 L92,427 L91,427 L91,428 L90,428 L90,429 L89,429 L89,430 L88,430 L88,431 L87,431 L87,433 L85,433 L85,434 L84,434 L84,435 L83,435 L83,436 L81,436 L81,437 L80,437 L80,438 L78,438 L78,439 L77,439 L77,440 L74,440 L74,441 L70,441 L70,442 L57,442 L57,441 L50,441 L50,440 L47,440 L47,439 L45,439 L45,438 L44,438 L44,437 L42,437 L42,436 L41,436 L41,435 L40,435 L40,434 L39,434 L39,433 L38,433 L38,432 L37,432 L37,431 L35,431 L35,430 L34,430 L34,429 L33,429 L33,428 L32,428 L32,427 L31,427 L31,426 L30,426 L30,425 L29,425 L29,424 L28,424 L28,423 L27,423 L27,422 L26,422 L26,421 L25,421 L25,420 L24,420 L24,419 L23,419 L23,418 L22,418 L22,417 L21,417 L21,416 L20,416 L20,415 L19,415 L19,414 L18,414 L18,413 L17,413 L17,412 L16,412 L16,411 L15,411 L15,410 L14,410 L14,409 L13,409 L13,408 L12,408 L12,407 L11,407 L11,406 L10,406 L10,405 L9,405 L9,404 L7,404 L7,403 L6,403 L6,402 L5,402 L5,401 L4,401 L4,400 L3,400 L3,399 L2,399 L2,398 L1,398 L1,397 L0,397 L0,396 L-1,396 L-1,395 L-2,395 L-2,394 L-3,394 L-3,393 L-4,393 L-4,392 L-5,392 L-5,391 L-6,391 L-6,390 L-7,390 L-7,389 L-8,389 L-8,388 L-9,388 L-9,387 L-10,387 L-10,386 L-11,386 L-11,385 L-12,385 L-12,384 L-13,384 L-13,383 L-14,383 L-14,382 L-15,382 L-15,381 L-17,381 L-17,380 L-18,380 L-18,379 L-19,379 L-19,378 L-20,378 L-20,377 L-21,377 L-21,376 L-22,376 L-22,375 L-23,375 L-23,374 L-24,374 L-24,373 L-25,373 L-25,372 L-26,372 L-26,371 L-27,371 L-27,370 L-28,370 L-28,369 L-29,369 L-29,368 L-30,368 L-30,367 L-31,367 L-31,366 L-32,366 L-32,365 L-33,365 L-33,364 L-34,364 L-34,362 L-35,362 L-35,361 L-36,361 L-36,360 L-37,360 L-37,358 L-38,358 L-38,356 L-39,356 L-39,355 L-40,355 L-40,353 L-41,353 L-41,351 L-42,351 L-42,349 L-43,349 L-43,346 L-44,346 L-44,344 L-45,344 L-45,340 L-46,340 L-46,331 L-45,331 L-45,328 L-44,328 L-44,325 L-43,325 L-43,323 L-42,323 L-42,322 L-41,322 L-41,321 L-40,321 L-40,319 L-39,319 L-39,318 L-37,318 L-37,317 L-36,317 L-36,316 L-35,316 L-35,315 L-33,315 L-33,314 L-32,314 L-32,313 L-29,313 L-29,312 L-16,312 L-16,313 L-13,313 L-13,314 L-11,314 L-11,315 L-9,315 L-9,316 L-8,316 L-8,317 L-7,317 L-7,318 L-6,318 L-6,319 L-4,319 L-4,320 L-3,320 L-3,321 L-2,321 L-2,322 L-1,322 L-1,323 L0,323 L0,324 L1,324 L1,325 L2,325 L2,326 L3,326 L3,327 L4,327 L4,328 L5,328 L5,329 L6,329 L6,330 L7,330 L7,331 L8,331 L8,332 L9,332 L9,333 L10,333 L10,334 L11,334 L11,335 L12,335 L12,336 L13,336 L13,337 L14,337 L14,338 L15,338 L15,339 L16,339 L16,340 L17,340 L17,341 L18,341 L18,342 L19,342 L19,343 L20,343 L20,344 L21,344 L21,345 L22,345 L22,346 L23,346 L23,347 L24,347 L24,348 L25,348 L25,349 L26,349 L26,350 L27,350 L27,351 L28,351 L28,352 L29,352 L29,353 L30,353 L30,354 L31,354 L31,355 L32,355 L32,356 L33,356 L33,357 L34,357 L34,358 L35,358 L35,359 L36,359 L36,360 L37,360 L37,361 L38,361 L38,362 L39,362 L39,363 L40,363 L40,364 L41,364 L41,365 L42,365 L42,366 L43,366 L43,367 L45,367 L45,366 L46,366 L46,365 L47,365 L47,364 L48,364 L48,363 L49,363 L49,362 L50,362 L50,361 L51,361 L51,360 L52,360 L52,359 L53,359 L53,358 L54,358 L54,357 L55,357 L55,356 L56,356 L56,355 L57,355 L57,354 L58,354 L58,352 L59,352 L59,351 L60,351 L60,350 L61,350 L61,349 L62,349 L62,348 L63,348 L63,347 L64,347 L64,346 L65,346 L65,345 L66,345 L66,344 L67,344 L67,343 L68,343 L68,342 L69,342 L69,341 L70,341 L70,339 L71,339 L71,338 L72,338 L72,337 L73,337 L73,336 L74,336 L74,335 L75,335 L75,334 L76,334 L76,333 L77,333 L77,332 L78,332 L78,331 L79,331 L79,330 L80,330 L80,329 L81,329 L81,328 L82,328 L82,327 L83,327 L83,325 L84,325 L84,324 L85,324 L85,323 L86,323 L86,322 L87,322 L87,321 L88,321 L88,320 L89,320 L89,319 L90,319 L90,318 L91,318 L91,317 L92,317 L92,316 L93,316 L93,315 L94,315 L94,314 L95,314 L95,313 L96,313 L96,311 L97,311 L97,310 L98,310 L98,309 L99,309 L99,308 L100,308 L100,307 L101,307 L101,306 L102,306 L102,305 L103,305 L103,304 L104,304 L104,303 L105,303 L105,302 L106,302 L106,301 L107,301 L107,300 L108,300 L108,299 L109,299 L109,298 L110,298 L110,296 L111,296 L111,295 L112,295 L112,294 L113,294 L113,293 L114,293 L114,292 L115,292 L115,291 L116,291 L116,290 L117,290 L117,289 L118,289 L118,288 L119,288 L119,287 L120,287 L120,286 L121,286 L121,285 L122,285 L122,283 L123,283 L123,282 L124,282 L124,281 L125,281 L125,280 L126,280 L126,279 L127,279 L127,278 L128,278 L128,277 L129,277 L129,276 L130,276 L130,275 L131,275 L131,274 L132,274 L132,273 L133,273 L133,272 L134,272 L134,270 L135,270 L135,269 L136,269 L136,268 L137,268 L137,267 L138,267 L138,266 L139,266 L139,265 L140,265 L140,264 L141,264 L141,263 L142,263 L142,262 L143,262 L143,261 L144,261 L144,260 L145,260 L145,259 L146,259 L146,257 L147,257 L147,256 L148,256 L148,255 L149,255 L149,254 L150,254 L150,253 L151,253 L151,252 L152,252 L152,251 L153,251 L153,250 L154,250 L154,249 L155,249 L155,248 L156,248 L156,247 L157,247 L157,246 L158,246 L158,245 L159,245 L159,244 L160,244 L160,243 L161,243 L161,242 L162,242 L162,241 L163,241 L163,240 L164,240 L164,239 L166,239 L166,238 L167,238 L167,237 L168,237 L168,236 L169,236 L169,235 L170,235 L170,234 L172,234 L172,233 L173,233 L173,232 L174,232 L174,231 L175,231 L175,230 L177,230 L177,229 L178,229 L178,228 L179,228 L179,227 L181,227 L181,226 L182,226 L182,225 L184,225 L184,224 L185,224 L185,223 L187,223 L187,222 L188,222 L188,221 L190,221 L190,220 L192,220 L192,219 L194,219 L194,218 L195,218 L195,217 L197,217 L197,216 L199,216 L199,215 L200,215 L200,214 L202,214 L202,213 L204,213 L204,212 L206,212 L206,211 L208,211 L208,210 L209,210 L209,209 L211,209 L211,208 L212,208 L212,207 L214,207 L214,206 L215,206 L215,205 L216,205 L216,204 L218,204 L218,203 L219,203 L219,202 L220,202 L220,201 L221,201 L221,200 L223,200 L223,199 L224,199 L224,198 L225,198 L225,197 L226,197 L226,196 L227,196 L227,195 L228,195 L228,194 L229,194 L229,192 L230,192 L230,191 L231,191 L231,190 L232,190 L232,188 L233,188 L233,187 L234,187 L234,185 L235,185 L235,184 L236,184 L236,182 L237,182 L237,180 L238,180 L238,178 L239,178 L239,176 L240,176 L240,175 L241,175 L241,170 L242,170 L242,168 L243,168 L243,164 L244,164 L244,159 L245,159 L245,137 L244,137 L244,132 L243,132 L243,130 L242,130 L242,127 L241,127 L241,123 L240,123 L240,122 L239,122 L239,119 L238,119 L238,117 L237,117 L237,115 L236,115 L236,113 L235,113 L235,111 L234,111 L234,110 L233,110 L233,108 L232,108 L232,107 L231,107 L231,106 L230,106 L230,105 L229,105 L229,103 L228,103 L228,102 L227,102 L227,101 L226,101 L226,100 L225,100 L225,99 L224,99 L224,98 L223,98 L223,97 L222,97 L222,96 L220,96 L220,95 L219,95 L219,94 L218,94 L218,93 L217,93 L217,92 L215,92 L215,91 L214,91 L214,90 L213,90 L213,89 L211,89 L211,88 L209,88 L209,87 L208,87 L208,86 L206,86 L206,85 L204,85 L204,84 L202,84 L202,83 L199,83 L199,82 L197,82 L197,81 L194,81 L194,80 L191,80 L191,79 L187,79 L187,78 L182,78 L182,77 L180,77 L180,76 L174,76 L174,75 L-6,75 L-6,92 L-7,92 L-7,94 L-8,94 L-8,97 L-9,97 L-9,98 L-10,98 L-10,100 L-11,100 L-11,101 L-12,101 L-12,102 L-13,102 L-13,103 L-15,103 L-15,104 L-17,104 L-17,105 L-19,105 L-19,106 L-50,106 L-50,107 L-52,107 L-52,108 L-54,108 L-54,109 L-56,109 L-56,110 L-57,110 L-57,111 L-59,111 L-59,112 L-60,112 L-60,113 L-61,113 L-61,115 L-62,115 L-62,116 L-63,116 L-63,118 L-64,118 L-64,120 L-65,120 L-65,123 L-66,123 L-66,331 L-65,331 L-65,336 L-64,336 L-64,340 L-63,340 L-63,343 L-62,343 L-62,347 L-61,347 L-61,350 L-60,350 L-60,352 L-59,352 L-59,354 L-58,354 L-58,356 L-57,356 L-57,358 L-56,358 L-56,360 L-55,360 L-55,361 L-54,361 L-54,362 L-53,362 L-53,364 L-52,364 L-52,365 L-51,365 L-51,366 L-50,366 L-50,367 L-49,367 L-49,368 L-48,368 L-48,369 L-47,369 L-47,370 L-46,370 L-46,371 L-45,371 L-45,372 L-43,372 L-43,373 L-42,373 L-42,374 L-41,374 L-41,375 L-39,375 L-39,376 L-38,376 L-38,377 L-58,377 L-58,376 L-62,376 L-62,375 L-66,375 L-66,374 L-70,374 L-70,373 L-72,373 L-72,372 L-74,372 L-74,371 L-76,371 L-76,370 L-78,370 L-78,369 L-79,369 L-79,368 L-81,368 L-81,367 L-82,367 L-82,366 L-83,366 L-83,365 L-85,365 L-85,364 L-86,364 L-86,363 L-87,363 L-87,362 L-88,362 L-88,360 L-89,360 L-89,359 L-90,359 L-90,358 L-91,358 L-91,357 L-92,357 L-92,355 L-93,355 L-93,354 L-94,354 L-94,352 L-95,352 L-95,350 L-96,350 L-96,348 L-97,348 L-97,346 L-98,346 L-98,344 L-99,344 L-99,338 L-100,338 L-100,101 L-99,101 L-99,98 L-98,98 L-98,96 L-97,96 L-97,94 L-96,94 L-96,93 L-95,93 L-95,91 L-94,91 L-94,90 L-93,90 L-93,89 L-92,89 L-92,88 L-91,88 L-91,87 L-90,87 L-90,86 L-89,86 L-89,85 L-88,85 L-88,84 L-87,84 L-87,83 L-86,83 L-86,82 L-85,82 L-85,81 L-84,81 L-84,80 L-83,80 L-83,79 L-82,79 L-82,78 L-81,78 L-81,77 L-80,77 L-80,76 L-79,76 L-79,75 L-78,75 L-78,74 L-77,74 L-77,73 L-76,73 L-76,72 L-75,72 L-75,71 L-74,71 L-74,70 L-73,70 L-73,69 L-72,69 L-72,68 L-71,68 L-71,67 L-70,67 L-70,66 L-69,66 L-69,64 L-68,64 L-68,63 L-67,63 L-67,62 L-66,62 L-66,61 L-65,61 L-65,60 L-64,60 L-64,59 L-63,59 L-63,58 L-62,58 L-62,57 L-61,57 L-61,56 L-60,56 L-60,55 L-59,55 L-59,54 L-58,54 L-58,53 L-57,53 L-57,52 L-56,52 L-56,51 L-55,51 L-55,50 L-54,50 L-54,49 L-53,49 L-53,48 L-52,48 L-52,47 L-51,47 L-51,46 L-50,46 L-50,45 L-49,45 L-49,44 L-48,44 L-48,43 L-47,43 L-47,42 L-46,42 L-46,41 L-45,41 L-45,40 L-44,40 L-44,39 L-43,39 L-43,38 L-42,38 L-42,37 L-41,37 L-41,36 L-40,36 L-40,35 L-39,35 L-39,34 L-38,34 L-38,32 L-37,32 L-37,31 L-36,31 L-36,30 L-35,30 L-35,29 L-34,29 L-34,28 L-33,28 L-33,27 L-32,27 L-32,26 L-31,26 L-31,25 L-30,25 L-30,24 L-29,24 L-29,23 L-28,23 L-28,22 L-27,22 L-27,21 L-26,21 L-26,20 L-25,20 L-25,19 L-24,19 L-24,18 L-23,18 L-23,17 L-22,17 L-22,16 L-21,16 L-21,15 L-20,15 L-20,14 L-19,14 L-19,13 L-18,13 L-18,12 L-17,12 L-17,11 L-16,11 L-16,10 L-15,10 L-15,9 L-14,9 L-14,8 L-13,8 L-13,7 L-12,7 L-12,6 L-11,6 L-11,5 L-9,5 L-9,4 L-8,4 L-8,3 L-6,3 L-6,2 L-2,2 L-2,1 L0,1 Z " fill="#F95E89" transform="translate(499,295)"/>
<path d="M0,0 L6,0 L6,1 L4,1 L4,2 L3,2 L3,4 L2,4 L2,6 L1,6 L1,12 L2,12 L2,13 L1,13 L1,21 L2,21 L2,22 L1,22 L1,25 L2,25 L2,27 L1,27 L1,30 L2,30 L2,32 L1,32 L1,33 L2,33 L2,36 L1,36 L1,38 L2,38 L2,48 L1,48 L1,57 L2,57 L2,62 L1,62 L1,67 L2,67 L2,68 L1,68 L1,69 L2,69 L2,73 L0,73 L0,90 L-1,90 L-1,92 L-2,92 L-2,95 L-3,95 L-3,96 L-4,96 L-4,98 L-5,98 L-5,99 L-6,99 L-6,100 L-7,100 L-7,101 L-9,101 L-9,102 L-11,102 L-11,103 L-13,103 L-13,104 L-44,104 L-44,105 L-46,105 L-46,106 L-48,106 L-48,107 L-50,107 L-50,108 L-51,108 L-51,109 L-53,109 L-53,110 L-54,110 L-54,111 L-55,111 L-55,113 L-56,113 L-56,114 L-57,114 L-57,116 L-58,116 L-58,118 L-59,118 L-59,121 L-60,121 L-60,329 L-59,329 L-59,334 L-58,334 L-58,338 L-57,338 L-57,341 L-56,341 L-56,345 L-55,345 L-55,348 L-54,348 L-54,350 L-53,350 L-53,352 L-52,352 L-52,354 L-51,354 L-51,356 L-50,356 L-50,358 L-49,358 L-49,359 L-48,359 L-48,360 L-47,360 L-47,362 L-46,362 L-46,363 L-45,363 L-45,364 L-44,364 L-44,365 L-43,365 L-43,366 L-42,366 L-42,367 L-41,367 L-41,368 L-40,368 L-40,369 L-39,369 L-39,370 L-37,370 L-37,371 L-36,371 L-36,372 L-35,372 L-35,373 L-33,373 L-33,374 L-32,374 L-32,375 L-52,375 L-52,374 L-56,374 L-56,373 L-60,373 L-60,372 L-64,372 L-64,371 L-66,371 L-66,370 L-68,370 L-68,369 L-70,369 L-70,368 L-72,368 L-72,367 L-73,367 L-73,366 L-75,366 L-75,365 L-76,365 L-76,364 L-77,364 L-77,363 L-79,363 L-79,362 L-80,362 L-80,361 L-81,361 L-81,360 L-82,360 L-82,358 L-83,358 L-83,357 L-84,357 L-84,356 L-85,356 L-85,355 L-86,355 L-86,353 L-87,353 L-87,352 L-88,352 L-88,350 L-89,350 L-89,348 L-90,348 L-90,346 L-91,346 L-91,344 L-92,344 L-92,342 L-93,342 L-93,336 L-94,336 L-94,99 L-93,99 L-93,96 L-92,96 L-92,94 L-91,94 L-91,92 L-90,92 L-90,91 L-89,91 L-89,89 L-88,89 L-88,88 L-87,88 L-87,87 L-86,87 L-86,86 L-85,86 L-85,85 L-84,85 L-84,84 L-83,84 L-83,83 L-82,83 L-82,82 L-81,82 L-81,81 L-80,81 L-80,80 L-79,80 L-79,79 L-78,79 L-78,78 L-77,78 L-77,77 L-76,77 L-76,76 L-75,76 L-75,75 L-74,75 L-74,74 L-73,74 L-73,73 L-72,73 L-72,72 L-71,72 L-71,71 L-70,71 L-70,70 L-69,70 L-69,69 L-68,69 L-68,68 L-67,68 L-67,67 L-66,67 L-66,66 L-65,66 L-65,65 L-64,65 L-64,64 L-63,64 L-63,62 L-62,62 L-62,61 L-61,61 L-61,60 L-60,60 L-60,59 L-59,59 L-59,58 L-58,58 L-58,57 L-57,57 L-57,56 L-56,56 L-56,55 L-55,55 L-55,54 L-54,54 L-54,53 L-53,53 L-53,52 L-52,52 L-52,51 L-51,51 L-51,50 L-50,50 L-50,49 L-49,49 L-49,48 L-48,48 L-48,47 L-47,47 L-47,46 L-46,46 L-46,45 L-45,45 L-45,44 L-44,44 L-44,43 L-43,43 L-43,42 L-42,42 L-42,41 L-41,41 L-41,40 L-40,40 L-40,39 L-39,39 L-39,38 L-38,38 L-38,37 L-37,37 L-37,36 L-36,36 L-36,35 L-35,35 L-35,34 L-34,34 L-34,33 L-33,33 L-33,32 L-32,32 L-32,30 L-31,30 L-31,29 L-30,29 L-30,28 L-29,28 L-29,27 L-28,27 L-28,26 L-27,26 L-27,25 L-26,25 L-26,24 L-25,24 L-25,23 L-24,23 L-24,22 L-23,22 L-23,21 L-22,21 L-22,20 L-21,20 L-21,19 L-20,19 L-20,18 L-19,18 L-19,17 L-18,17 L-18,16 L-17,16 L-17,15 L-16,15 L-16,14 L-15,14 L-15,13 L-14,13 L-14,12 L-13,12 L-13,11 L-12,11 L-12,10 L-11,10 L-11,9 L-10,9 L-10,8 L-9,8 L-9,7 L-8,7 L-8,6 L-7,6 L-7,5 L-6,5 L-6,4 L-5,4 L-5,3 L-3,3 L-3,2 L-2,2 L-2,1 L0,1 Z " fill="#F9617B" transform="translate(493,297)"/>
<path d="M0,0 L24,0 L24,2 L25,2 L25,4 L26,4 L26,6 L27,6 L27,8 L28,8 L28,10 L29,10 L29,11 L30,11 L30,13 L31,13 L31,15 L32,15 L32,17 L33,17 L33,19 L34,19 L34,21 L35,21 L35,23 L36,23 L36,25 L37,25 L37,26 L38,26 L38,28 L39,28 L39,30 L40,30 L40,32 L41,32 L41,34 L42,34 L42,36 L43,36 L43,38 L44,38 L44,39 L45,39 L45,41 L46,41 L46,43 L47,43 L47,45 L48,45 L48,47 L49,47 L49,49 L50,49 L50,50 L51,50 L51,52 L52,52 L52,54 L53,54 L53,56 L54,56 L54,58 L55,58 L55,60 L56,60 L56,61 L57,61 L57,63 L58,63 L58,65 L59,65 L59,67 L60,67 L60,69 L61,69 L61,70 L62,70 L62,69 L63,69 L63,68 L64,68 L64,66 L65,66 L65,64 L66,64 L66,62 L67,62 L67,60 L68,60 L68,59 L69,59 L69,57 L70,57 L70,55 L71,55 L71,53 L72,53 L72,51 L73,51 L73,50 L74,50 L74,48 L75,48 L75,46 L76,46 L76,44 L77,44 L77,42 L78,42 L78,40 L79,40 L79,39 L80,39 L80,37 L81,37 L81,35 L82,35 L82,33 L83,33 L83,31 L84,31 L84,29 L85,29 L85,28 L86,28 L86,26 L87,26 L87,24 L88,24 L88,22 L89,22 L89,20 L90,20 L90,18 L91,18 L91,16 L92,16 L92,15 L93,15 L93,13 L94,13 L94,11 L95,11 L95,9 L96,9 L96,7 L97,7 L97,6 L98,6 L98,4 L99,4 L99,2 L100,2 L100,0 L123,0 L123,118 L103,118 L103,36 L102,36 L102,37 L101,37 L101,39 L100,39 L100,41 L99,41 L99,42 L98,42 L98,44 L97,44 L97,46 L96,46 L96,48 L95,48 L95,50 L94,50 L94,51 L93,51 L93,53 L92,53 L92,55 L91,55 L91,57 L90,57 L90,59 L89,59 L89,60 L88,60 L88,62 L87,62 L87,64 L86,64 L86,66 L85,66 L85,68 L84,68 L84,69 L83,69 L83,71 L82,71 L82,73 L81,73 L81,75 L80,75 L80,76 L79,76 L79,78 L78,78 L78,80 L77,80 L77,82 L76,82 L76,83 L75,83 L75,85 L74,85 L74,87 L73,87 L73,89 L72,89 L72,91 L71,91 L71,93 L70,93 L70,94 L69,94 L69,96 L68,96 L68,97 L55,97 L55,96 L54,96 L54,94 L53,94 L53,92 L52,92 L52,91 L51,91 L51,89 L50,89 L50,87 L49,87 L49,85 L48,85 L48,83 L47,83 L47,81 L46,81 L46,80 L45,80 L45,78 L44,78 L44,76 L43,76 L43,74 L42,74 L42,72 L41,72 L41,71 L40,71 L40,69 L39,69 L39,67 L38,67 L38,65 L37,65 L37,63 L36,63 L36,62 L35,62 L35,60 L34,60 L34,58 L33,58 L33,56 L32,56 L32,54 L31,54 L31,53 L30,53 L30,51 L29,51 L29,49 L28,49 L28,47 L27,47 L27,45 L26,45 L26,44 L25,44 L25,42 L24,42 L24,40 L23,40 L23,38 L22,38 L22,37 L21,37 L21,118 L0,118 Z " fill="#171B2E" transform="translate(537,788)"/>
<path d="M0,0 L58,0 L58,1 L62,1 L62,2 L65,2 L65,3 L68,3 L68,4 L70,4 L70,5 L72,5 L72,6 L73,6 L73,7 L75,7 L75,8 L76,8 L76,9 L77,9 L77,10 L78,10 L78,11 L80,11 L80,13 L81,13 L81,14 L82,14 L82,15 L83,15 L83,17 L84,17 L84,18 L85,18 L85,20 L86,20 L86,22 L87,22 L87,25 L88,25 L88,31 L89,31 L89,42 L88,42 L88,47 L87,47 L87,51 L86,51 L86,54 L85,54 L85,55 L84,55 L84,57 L83,57 L83,59 L82,59 L82,60 L81,60 L81,61 L80,61 L80,62 L79,62 L79,63 L78,63 L78,64 L77,64 L77,65 L76,65 L76,66 L75,66 L75,67 L73,67 L73,68 L71,68 L71,69 L69,69 L69,70 L67,70 L67,71 L64,71 L64,73 L65,73 L65,75 L66,75 L66,77 L67,77 L67,78 L68,78 L68,80 L69,80 L69,81 L70,81 L70,83 L71,83 L71,84 L72,84 L72,86 L73,86 L73,87 L74,87 L74,89 L75,89 L75,90 L76,90 L76,92 L77,92 L77,93 L78,93 L78,95 L79,95 L79,96 L80,96 L80,98 L81,98 L81,99 L82,99 L82,101 L83,101 L83,103 L84,103 L84,104 L85,104 L85,106 L86,106 L86,107 L87,107 L87,109 L88,109 L88,110 L89,110 L89,111 L90,111 L90,113 L91,113 L91,115 L92,115 L92,116 L93,116 L93,117 L69,117 L69,116 L68,116 L68,115 L67,115 L67,113 L66,113 L66,111 L65,111 L65,110 L64,110 L64,108 L63,108 L63,107 L62,107 L62,105 L61,105 L61,104 L60,104 L60,102 L59,102 L59,101 L58,101 L58,99 L57,99 L57,97 L56,97 L56,96 L55,96 L55,94 L54,94 L54,92 L53,92 L53,91 L52,91 L52,89 L51,89 L51,88 L50,88 L50,86 L49,86 L49,85 L48,85 L48,83 L47,83 L47,81 L46,81 L46,80 L45,80 L45,78 L44,78 L44,77 L43,77 L43,75 L42,75 L42,74 L20,74 L20,117 L0,117 Z " fill="#14182B" transform="translate(154,789)"/>
<path d="M0,0 L25,0 L25,2 L26,2 L26,4 L27,4 L27,7 L28,7 L28,10 L29,10 L29,12 L30,12 L30,15 L31,15 L31,17 L32,17 L32,20 L33,20 L33,22 L34,22 L34,25 L35,25 L35,27 L36,27 L36,30 L37,30 L37,33 L38,33 L38,35 L39,35 L39,38 L40,38 L40,40 L41,40 L41,43 L42,43 L42,45 L43,45 L43,48 L44,48 L44,51 L45,51 L45,53 L46,53 L46,56 L47,56 L47,59 L48,59 L48,61 L49,61 L49,65 L50,65 L50,66 L51,66 L51,69 L52,69 L52,72 L53,72 L53,74 L54,74 L54,77 L55,77 L55,79 L56,79 L56,82 L57,82 L57,85 L58,85 L58,87 L59,87 L59,90 L60,90 L60,93 L61,93 L61,95 L62,95 L62,98 L63,98 L63,100 L64,100 L64,103 L65,103 L65,105 L66,105 L66,108 L67,108 L67,111 L68,111 L68,114 L69,114 L69,116 L70,116 L70,118 L48,118 L48,116 L47,116 L47,113 L46,113 L46,110 L45,110 L45,107 L44,107 L44,105 L43,105 L43,102 L42,102 L42,99 L41,99 L41,97 L40,97 L40,94 L39,94 L39,91 L-14,91 L-14,93 L-15,93 L-15,96 L-16,96 L-16,100 L-17,100 L-17,101 L-18,101 L-18,104 L-19,104 L-19,108 L-20,108 L-20,109 L-21,109 L-21,114 L-22,114 L-22,115 L-23,115 L-23,118 L-45,118 L-45,116 L-44,116 L-44,113 L-43,113 L-43,111 L-42,111 L-42,108 L-41,108 L-41,106 L-40,106 L-40,103 L-39,103 L-39,101 L-38,101 L-38,98 L-37,98 L-37,95 L-36,95 L-36,94 L-35,94 L-35,90 L-34,90 L-34,87 L-33,87 L-33,85 L-32,85 L-32,82 L-31,82 L-31,80 L-30,80 L-30,77 L-29,77 L-29,75 L-28,75 L-28,72 L-27,72 L-27,69 L-26,69 L-26,67 L-25,67 L-25,65 L-24,65 L-24,62 L-23,62 L-23,59 L-22,59 L-22,57 L-21,57 L-21,54 L-20,54 L-20,51 L-19,51 L-19,49 L-18,49 L-18,46 L-17,46 L-17,44 L-16,44 L-16,41 L-15,41 L-15,39 L-14,39 L-14,36 L-13,36 L-13,33 L-12,33 L-12,31 L-11,31 L-11,28 L-10,28 L-10,26 L-9,26 L-9,23 L-8,23 L-8,20 L-7,20 L-7,18 L-6,18 L-6,15 L-5,15 L-5,12 L-4,12 L-4,10 L-3,10 L-3,7 L-2,7 L-2,5 L-1,5 L-1,2 L0,2 Z " fill="#F85391" transform="translate(1000,788)"/>
<path d="M0,0 L21,0 L21,1 L25,1 L25,2 L29,2 L29,3 L31,3 L31,4 L33,4 L33,5 L35,5 L35,6 L36,6 L36,7 L38,7 L38,8 L39,8 L39,9 L40,9 L40,10 L41,10 L41,11 L42,11 L42,12 L43,12 L43,14 L44,14 L44,15 L45,15 L45,17 L46,17 L46,19 L47,19 L47,22 L48,22 L48,85 L30,85 L30,74 L29,74 L29,75 L28,75 L28,76 L27,76 L27,77 L26,77 L26,78 L25,78 L25,79 L24,79 L24,80 L23,80 L23,81 L22,81 L22,82 L20,82 L20,83 L18,83 L18,84 L15,84 L15,85 L13,85 L13,86 L9,86 L9,87 L-7,87 L-7,86 L-9,86 L-9,85 L-13,85 L-13,84 L-15,84 L-15,83 L-16,83 L-16,82 L-18,82 L-18,81 L-19,81 L-19,80 L-20,80 L-20,79 L-21,79 L-21,78 L-22,78 L-22,77 L-23,77 L-23,76 L-24,76 L-24,75 L-25,75 L-25,73 L-26,73 L-26,71 L-27,71 L-27,67 L-28,67 L-28,54 L-27,54 L-27,52 L-26,52 L-26,49 L-25,49 L-25,48 L-24,48 L-24,46 L-23,46 L-23,45 L-22,45 L-22,44 L-21,44 L-21,43 L-20,43 L-20,42 L-19,42 L-19,41 L-17,41 L-17,40 L-15,40 L-15,39 L-14,39 L-14,38 L-12,38 L-12,37 L-9,37 L-9,36 L-6,36 L-6,35 L-1,35 L-1,34 L19,34 L19,35 L29,35 L29,29 L28,29 L28,23 L27,23 L27,22 L26,22 L26,21 L25,21 L25,20 L24,20 L24,19 L23,19 L23,18 L21,18 L21,17 L18,17 L18,16 L15,16 L15,15 L5,15 L5,16 L2,16 L2,17 L-1,17 L-1,18 L-3,18 L-3,19 L-4,19 L-4,20 L-5,20 L-5,21 L-7,21 L-7,22 L-8,22 L-8,24 L-9,24 L-9,25 L-10,25 L-10,26 L-12,26 L-12,25 L-13,25 L-13,24 L-15,24 L-15,23 L-16,23 L-16,22 L-18,22 L-18,21 L-19,21 L-19,20 L-21,20 L-21,19 L-22,19 L-22,18 L-24,18 L-24,16 L-23,16 L-23,14 L-22,14 L-22,13 L-21,13 L-21,12 L-20,12 L-20,11 L-19,11 L-19,10 L-18,10 L-18,9 L-17,9 L-17,8 L-16,8 L-16,7 L-14,7 L-14,6 L-13,6 L-13,5 L-11,5 L-11,4 L-9,4 L-9,3 L-7,3 L-7,2 L-4,2 L-4,1 L0,1 Z " fill="#171B2D" transform="translate(705,821)"/>
<path d="M0,0 L17,0 L17,1 L21,1 L21,2 L24,2 L24,3 L27,3 L27,4 L29,4 L29,5 L31,5 L31,6 L32,6 L32,7 L34,7 L34,8 L35,8 L35,9 L36,9 L36,10 L37,10 L37,11 L38,11 L38,12 L39,12 L39,13 L40,13 L40,14 L41,14 L41,15 L42,15 L42,17 L43,17 L43,18 L44,18 L44,20 L45,20 L45,22 L46,22 L46,24 L47,24 L47,27 L48,27 L48,30 L49,30 L49,49 L-15,49 L-15,52 L-14,52 L-14,55 L-13,55 L-13,56 L-12,56 L-12,59 L-11,59 L-11,61 L-10,61 L-10,62 L-9,62 L-9,63 L-8,63 L-8,64 L-7,64 L-7,65 L-6,65 L-6,66 L-5,66 L-5,67 L-3,67 L-3,68 L-1,68 L-1,69 L3,69 L3,70 L4,70 L4,71 L15,71 L15,70 L19,70 L19,69 L21,69 L21,68 L23,68 L23,67 L25,67 L25,66 L26,66 L26,65 L27,65 L27,64 L28,64 L28,63 L29,63 L29,62 L30,62 L30,61 L31,61 L31,59 L33,59 L33,60 L34,60 L34,61 L36,61 L36,62 L38,62 L38,63 L39,63 L39,64 L41,64 L41,65 L43,65 L43,66 L44,66 L44,67 L46,67 L46,70 L45,70 L45,71 L44,71 L44,73 L43,73 L43,74 L42,74 L42,75 L41,75 L41,76 L40,76 L40,77 L39,77 L39,78 L37,78 L37,79 L36,79 L36,80 L34,80 L34,81 L32,81 L32,82 L30,82 L30,83 L28,83 L28,84 L25,84 L25,85 L22,85 L22,86 L19,86 L19,87 L1,87 L1,86 L-3,86 L-3,85 L-5,85 L-5,84 L-9,84 L-9,83 L-11,83 L-11,82 L-13,82 L-13,81 L-14,81 L-14,80 L-16,80 L-16,79 L-17,79 L-17,78 L-19,78 L-19,77 L-20,77 L-20,76 L-21,76 L-21,75 L-22,75 L-22,74 L-23,74 L-23,73 L-24,73 L-24,72 L-25,72 L-25,70 L-26,70 L-26,69 L-27,69 L-27,67 L-28,67 L-28,66 L-29,66 L-29,64 L-30,64 L-30,62 L-31,62 L-31,60 L-32,60 L-32,55 L-33,55 L-33,52 L-34,52 L-34,34 L-33,34 L-33,30 L-32,30 L-32,27 L-31,27 L-31,24 L-30,24 L-30,22 L-29,22 L-29,21 L-28,21 L-28,19 L-27,19 L-27,17 L-26,17 L-26,16 L-25,16 L-25,15 L-24,15 L-24,14 L-23,14 L-23,12 L-22,12 L-22,11 L-21,11 L-21,10 L-19,10 L-19,9 L-18,9 L-18,8 L-17,8 L-17,7 L-15,7 L-15,6 L-14,6 L-14,5 L-12,5 L-12,4 L-10,4 L-10,3 L-8,3 L-8,2 L-5,2 L-5,1 L0,1 Z " fill="#171B2E" transform="translate(289,821)"/>
<path d="M0,0 L19,0 L19,1 L24,1 L24,2 L26,2 L26,3 L28,3 L28,4 L30,4 L30,5 L32,5 L32,6 L34,6 L34,7 L35,7 L35,8 L37,8 L37,9 L38,9 L38,10 L39,10 L39,11 L40,11 L40,12 L41,12 L41,13 L42,13 L42,15 L43,15 L43,16 L44,16 L44,17 L45,17 L45,19 L46,19 L46,21 L47,21 L47,23 L48,23 L48,25 L49,25 L49,29 L50,29 L50,34 L51,34 L51,49 L-13,49 L-13,51 L-12,51 L-12,54 L-11,54 L-11,57 L-10,57 L-10,59 L-9,59 L-9,61 L-8,61 L-8,62 L-7,62 L-7,63 L-6,63 L-6,64 L-5,64 L-5,65 L-4,65 L-4,66 L-3,66 L-3,67 L-1,67 L-1,68 L0,68 L0,69 L4,69 L4,70 L7,70 L7,71 L17,71 L17,70 L19,70 L19,69 L22,69 L22,68 L24,68 L24,67 L26,67 L26,66 L28,66 L28,65 L29,65 L29,64 L30,64 L30,63 L31,63 L31,61 L32,61 L32,60 L33,60 L33,59 L35,59 L35,60 L36,60 L36,61 L38,61 L38,62 L40,62 L40,63 L41,63 L41,64 L43,64 L43,65 L45,65 L45,66 L46,66 L46,67 L48,67 L48,70 L47,70 L47,71 L46,71 L46,72 L45,72 L45,73 L44,73 L44,74 L43,74 L43,75 L42,75 L42,76 L41,76 L41,77 L40,77 L40,78 L39,78 L39,79 L37,79 L37,80 L36,80 L36,81 L34,81 L34,82 L32,82 L32,83 L29,83 L29,84 L28,84 L28,85 L23,85 L23,86 L18,86 L18,87 L4,87 L4,86 L-1,86 L-1,85 L-5,85 L-5,84 L-7,84 L-7,83 L-9,83 L-9,82 L-11,82 L-11,81 L-13,81 L-13,80 L-14,80 L-14,79 L-16,79 L-16,78 L-17,78 L-17,77 L-18,77 L-18,76 L-19,76 L-19,75 L-20,75 L-20,74 L-21,74 L-21,73 L-22,73 L-22,72 L-23,72 L-23,71 L-24,71 L-24,69 L-25,69 L-25,68 L-26,68 L-26,66 L-27,66 L-27,64 L-28,64 L-28,62 L-29,62 L-29,59 L-30,59 L-30,55 L-31,55 L-31,50 L-32,50 L-32,34 L-31,34 L-31,30 L-30,30 L-30,27 L-29,27 L-29,25 L-28,25 L-28,23 L-27,23 L-27,21 L-26,21 L-26,19 L-25,19 L-25,17 L-24,17 L-24,16 L-23,16 L-23,15 L-22,15 L-22,14 L-21,14 L-21,13 L-20,13 L-20,11 L-18,11 L-18,10 L-17,10 L-17,9 L-16,9 L-16,8 L-15,8 L-15,7 L-13,7 L-13,6 L-12,6 L-12,5 L-10,5 L-10,4 L-8,4 L-8,3 L-6,3 L-6,2 L-3,2 L-3,1 L0,1 Z " fill="#161A2D" transform="translate(864,821)"/>
<path d="M0,0 L20,0 L20,55 L21,55 L21,57 L22,57 L22,60 L23,60 L23,62 L24,62 L24,63 L25,63 L25,64 L26,64 L26,65 L27,65 L27,66 L29,66 L29,67 L31,67 L31,68 L45,68 L45,67 L48,67 L48,66 L50,66 L50,65 L51,65 L51,64 L53,64 L53,63 L54,63 L54,62 L55,62 L55,60 L56,60 L56,59 L57,59 L57,57 L58,57 L58,54 L59,54 L59,52 L60,52 L60,0 L79,0 L79,84 L60,84 L60,73 L59,73 L59,74 L58,74 L58,75 L57,75 L57,76 L56,76 L56,77 L55,77 L55,78 L54,78 L54,79 L53,79 L53,80 L51,80 L51,81 L50,81 L50,82 L48,82 L48,83 L45,83 L45,84 L43,84 L43,85 L39,85 L39,86 L25,86 L25,85 L22,85 L22,84 L18,84 L18,83 L16,83 L16,82 L15,82 L15,81 L13,81 L13,80 L12,80 L12,79 L11,79 L11,78 L10,78 L10,77 L9,77 L9,76 L8,76 L8,75 L7,75 L7,74 L6,74 L6,72 L5,72 L5,70 L4,70 L4,68 L3,68 L3,64 L2,64 L2,62 L1,62 L1,56 L0,56 Z " fill="#171C2E" transform="translate(437,822)"/>
<path d="M0,0 L19,0 L19,1 L24,1 L24,2 L28,2 L28,3 L30,3 L30,4 L32,4 L32,5 L34,5 L34,6 L35,6 L35,7 L37,7 L37,8 L38,8 L38,9 L39,9 L39,10 L40,10 L40,11 L41,11 L41,12 L42,12 L42,14 L43,14 L43,15 L44,15 L44,17 L45,17 L45,18 L43,18 L43,19 L41,19 L41,20 L39,20 L39,21 L38,21 L38,22 L36,22 L36,23 L34,23 L34,24 L32,24 L32,25 L29,25 L29,24 L28,24 L28,22 L27,22 L27,21 L26,21 L26,20 L25,20 L25,19 L24,19 L24,18 L22,18 L22,17 L19,17 L19,16 L17,16 L17,15 L4,15 L4,16 L2,16 L2,17 L0,17 L0,18 L-1,18 L-1,19 L-2,19 L-2,20 L-3,20 L-3,27 L-2,27 L-2,29 L-1,29 L-1,30 L1,30 L1,31 L2,31 L2,32 L5,32 L5,33 L10,33 L10,34 L15,34 L15,35 L20,35 L20,36 L24,36 L24,37 L28,37 L28,38 L30,38 L30,39 L32,39 L32,40 L35,40 L35,41 L37,41 L37,42 L38,42 L38,43 L39,43 L39,44 L41,44 L41,45 L42,45 L42,47 L43,47 L43,48 L44,48 L44,50 L45,50 L45,51 L46,51 L46,54 L47,54 L47,65 L46,65 L46,68 L45,68 L45,71 L44,71 L44,73 L43,73 L43,74 L42,74 L42,76 L41,76 L41,77 L40,77 L40,78 L39,78 L39,79 L37,79 L37,80 L36,80 L36,81 L34,81 L34,82 L32,82 L32,83 L30,83 L30,84 L28,84 L28,85 L23,85 L23,86 L21,86 L21,87 L4,87 L4,86 L-2,86 L-2,85 L-5,85 L-5,84 L-8,84 L-8,83 L-10,83 L-10,82 L-12,82 L-12,81 L-14,81 L-14,80 L-15,80 L-15,79 L-17,79 L-17,78 L-18,78 L-18,77 L-19,77 L-19,76 L-20,76 L-20,75 L-21,75 L-21,73 L-22,73 L-22,72 L-23,72 L-23,70 L-24,70 L-24,68 L-25,68 L-25,66 L-24,66 L-24,65 L-22,65 L-22,64 L-20,64 L-20,63 L-18,63 L-18,62 L-16,62 L-16,61 L-14,61 L-14,60 L-12,60 L-12,59 L-9,59 L-9,61 L-8,61 L-8,62 L-7,62 L-7,64 L-6,64 L-6,65 L-5,65 L-5,66 L-4,66 L-4,67 L-2,67 L-2,68 L-1,68 L-1,69 L1,69 L1,70 L5,70 L5,71 L19,71 L19,70 L22,70 L22,69 L24,69 L24,68 L25,68 L25,67 L26,67 L26,66 L27,66 L27,64 L28,64 L28,59 L27,59 L27,57 L26,57 L26,56 L25,56 L25,55 L23,55 L23,54 L21,54 L21,53 L17,53 L17,52 L14,52 L14,51 L8,51 L8,50 L5,50 L5,49 L0,49 L0,48 L-3,48 L-3,47 L-6,47 L-6,46 L-9,46 L-9,45 L-10,45 L-10,44 L-12,44 L-12,43 L-14,43 L-14,42 L-15,42 L-15,41 L-16,41 L-16,40 L-17,40 L-17,39 L-18,39 L-18,38 L-19,38 L-19,36 L-20,36 L-20,34 L-21,34 L-21,31 L-22,31 L-22,18 L-21,18 L-21,15 L-20,15 L-20,14 L-19,14 L-19,12 L-18,12 L-18,11 L-17,11 L-17,10 L-16,10 L-16,9 L-15,9 L-15,8 L-14,8 L-14,7 L-13,7 L-13,6 L-12,6 L-12,5 L-10,5 L-10,4 L-8,4 L-8,3 L-6,3 L-6,2 L-3,2 L-3,1 L0,1 Z " fill="#161A2D" transform="translate(376,821)"/>
<path d="M0,0 L154,0 L154,1 L156,1 L156,2 L157,2 L157,3 L158,3 L158,4 L159,4 L159,6 L160,6 L160,13 L159,13 L159,16 L158,16 L158,17 L157,17 L157,18 L155,18 L155,19 L153,19 L153,20 L1,20 L1,19 L-1,19 L-1,18 L-2,18 L-2,17 L-3,17 L-3,16 L-4,16 L-4,15 L-5,15 L-5,13 L-6,13 L-6,6 L-5,6 L-5,5 L-4,5 L-4,3 L-3,3 L-3,2 L-1,2 L-1,1 L0,1 Z " fill="#F64A75" transform="translate(488,441)"/>
<path d="M0,0 L19,0 L19,23 L41,23 L41,40 L19,40 L19,83 L20,83 L20,86 L21,86 L21,87 L22,87 L22,88 L23,88 L23,89 L24,89 L24,90 L38,90 L38,89 L41,89 L41,106 L39,106 L39,107 L36,107 L36,108 L19,108 L19,107 L15,107 L15,106 L13,106 L13,105 L11,105 L11,104 L10,104 L10,103 L8,103 L8,102 L7,102 L7,101 L6,101 L6,100 L5,100 L5,98 L4,98 L4,96 L3,96 L3,94 L2,94 L2,91 L1,91 L1,88 L0,88 L0,40 L-15,40 L-15,23 L0,23 Z " fill="#171B2D" transform="translate(781,799)"/>
<path d="M0,0 L20,0 L20,117 L0,117 Z " fill="#F84D8E" transform="translate(1083,789)"/>
<path d="M0,0 L107,0 L107,1 L109,1 L109,2 L110,2 L110,3 L111,3 L111,4 L112,4 L112,6 L113,6 L113,13 L112,13 L112,15 L111,15 L111,17 L110,17 L110,18 L108,18 L108,19 L106,19 L106,20 L0,20 L0,19 L-1,19 L-1,18 L-2,18 L-2,17 L-3,17 L-3,16 L-4,16 L-4,15 L-5,15 L-5,13 L-6,13 L-6,6 L-5,6 L-5,4 L-4,4 L-4,3 L-3,3 L-3,2 L-2,2 L-2,1 L0,1 Z " fill="#F75378" transform="translate(488,492)"/>
<path d="M0,0 L32,0 L32,1 L36,1 L36,2 L38,2 L38,3 L40,3 L40,4 L41,4 L41,5 L42,5 L42,6 L43,6 L43,7 L44,7 L44,8 L45,8 L45,10 L46,10 L46,12 L47,12 L47,14 L48,14 L48,24 L47,24 L47,27 L46,27 L46,29 L45,29 L45,31 L44,31 L44,32 L43,32 L43,33 L42,33 L42,34 L41,34 L41,35 L40,35 L40,36 L38,36 L38,37 L36,37 L36,38 L30,38 L30,39 L0,39 Z " fill="#F9F9F9" transform="translate(174,807)"/>
<path d="M0,0 L76,0 L76,1 L78,1 L78,2 L79,2 L79,3 L80,3 L80,4 L81,4 L81,5 L82,5 L82,7 L83,7 L83,12 L82,12 L82,14 L81,14 L81,16 L80,16 L80,17 L79,17 L79,18 L78,18 L78,19 L75,19 L75,20 L1,20 L1,19 L-1,19 L-1,18 L-2,18 L-2,17 L-3,17 L-3,16 L-4,16 L-4,15 L-5,15 L-5,13 L-6,13 L-6,6 L-5,6 L-5,5 L-4,5 L-4,4 L-3,4 L-3,3 L-2,3 L-2,2 L-1,2 L-1,1 L0,1 Z " fill="#F85A7B" transform="translate(488,543)"/>
<path d="M0,0 L1,0 L1,2 L2,2 L2,5 L3,5 L3,7 L4,7 L4,10 L5,10 L5,12 L6,12 L6,15 L7,15 L7,18 L8,18 L8,20 L9,20 L9,23 L10,23 L10,26 L11,26 L11,29 L12,29 L12,31 L13,31 L13,34 L14,34 L14,37 L15,37 L15,39 L16,39 L16,42 L17,42 L17,44 L18,44 L18,47 L19,47 L19,51 L-18,51 L-18,47 L-17,47 L-17,44 L-16,44 L-16,43 L-15,43 L-15,39 L-14,39 L-14,36 L-13,36 L-13,34 L-12,34 L-12,32 L-11,32 L-11,28 L-10,28 L-10,26 L-9,26 L-9,23 L-8,23 L-8,20 L-7,20 L-7,18 L-6,18 L-6,15 L-5,15 L-5,12 L-4,12 L-4,9 L-3,9 L-3,7 L-2,7 L-2,4 L-1,4 L-1,2 L0,2 Z " fill="#FDF7FA" transform="translate(1012,810)"/>
<path d="M0,0 L28,0 L28,9 L27,9 L27,12 L26,12 L26,14 L25,14 L25,15 L24,15 L24,17 L23,17 L23,18 L21,18 L21,19 L20,19 L20,20 L18,20 L18,21 L16,21 L16,22 L13,22 L13,23 L-3,23 L-3,22 L-5,22 L-5,21 L-6,21 L-6,20 L-7,20 L-7,19 L-8,19 L-8,18 L-9,18 L-9,15 L-10,15 L-10,8 L-9,8 L-9,6 L-8,6 L-8,5 L-7,5 L-7,4 L-6,4 L-6,3 L-5,3 L-5,2 L-3,2 L-3,1 L0,1 Z " fill="#F7F7F8" transform="translate(706,869)"/>
<path d="M0,0 L9,0 L9,1 L12,1 L12,2 L15,2 L15,3 L17,3 L17,4 L19,4 L19,5 L20,5 L20,6 L21,6 L21,7 L22,7 L22,8 L23,8 L23,9 L24,9 L24,11 L25,11 L25,13 L26,13 L26,15 L27,15 L27,20 L-17,20 L-17,15 L-16,15 L-16,13 L-15,13 L-15,11 L-14,11 L-14,9 L-13,9 L-13,8 L-12,8 L-12,7 L-11,7 L-11,6 L-10,6 L-10,5 L-8,5 L-8,4 L-7,4 L-7,3 L-5,3 L-5,2 L-3,2 L-3,1 L0,1 Z " fill="#F7F7F7" transform="translate(869,836)"/>
<path d="M0,0 L13,0 L13,1 L16,1 L16,2 L19,2 L19,3 L20,3 L20,4 L21,4 L21,5 L22,5 L22,6 L23,6 L23,7 L24,7 L24,8 L25,8 L25,9 L26,9 L26,12 L27,12 L27,13 L28,13 L28,19 L-16,19 L-16,14 L-15,14 L-15,12 L-14,12 L-14,10 L-13,10 L-13,9 L-12,9 L-12,7 L-11,7 L-11,6 L-10,6 L-10,5 L-9,5 L-9,4 L-7,4 L-7,3 L-6,3 L-6,2 L-4,2 L-4,1 L0,1 Z " fill="#F9F9F9" transform="translate(291,837)"/>
<path d="M0,0 L192,0 L192,1 L193,1 L193,2 L108,2 L108,3 L107,3 L107,2 L11,2 L11,3 L10,3 L10,2 L1,2 L1,4 L0,4 L0,5 L-1,5 L-1,6 L-2,6 L-2,7 L-3,7 L-3,8 L-4,8 L-4,6 L-3,6 L-3,4 L-2,4 L-2,3 L0,3 L0,2 L-2,2 L-2,1 L0,1 Z " fill="#FA7E85" transform="translate(499,295)"/>
<path d="M0,0 L3,0 L3,1 L24,1 L24,2 L23,2 L23,3 L-59,3 L-59,2 L-61,2 L-61,1 L0,1 Z " fill="#F5467D" transform="translate(844,730)"/>
<path d="M0,0 L1,0 L1,30 L2,30 L2,31 L1,31 L1,42 L2,42 L2,43 L19,43 L19,45 L-1,45 L-1,5 L0,5 Z " fill="#F2348B" transform="translate(1084,861)"/>
<path d="M0,0 L20,0 L20,1 L17,1 L17,2 L16,2 L16,1 L14,1 L14,2 L10,2 L10,1 L9,1 L9,2 L5,2 L5,1 L4,1 L4,2 L3,2 L3,3 L2,3 L2,45 L1,45 L1,46 L0,46 Z " fill="#FA5B8B" transform="translate(1083,789)"/>
<path d="M0,0 L6,0 L6,1 L4,1 L4,2 L3,2 L3,4 L2,4 L2,6 L1,6 L1,7 L0,7 L0,4 L-2,4 L-2,5 L-3,5 L-3,6 L-5,6 L-5,7 L-6,7 L-6,8 L-7,8 L-7,9 L-8,9 L-8,10 L-9,10 L-9,11 L-10,11 L-10,12 L-11,12 L-11,13 L-12,13 L-12,14 L-13,14 L-13,15 L-14,15 L-14,16 L-15,16 L-15,17 L-16,17 L-16,18 L-17,18 L-17,19 L-18,19 L-18,20 L-19,20 L-19,21 L-20,21 L-20,22 L-21,22 L-21,23 L-22,23 L-22,24 L-23,24 L-23,25 L-24,25 L-24,26 L-25,26 L-25,23 L-24,23 L-24,22 L-23,22 L-23,21 L-22,21 L-22,20 L-21,20 L-21,19 L-20,19 L-20,18 L-19,18 L-19,17 L-18,17 L-18,16 L-17,16 L-17,15 L-16,15 L-16,14 L-15,14 L-15,13 L-14,13 L-14,12 L-13,12 L-13,11 L-12,11 L-12,10 L-11,10 L-11,9 L-10,9 L-10,8 L-9,8 L-9,7 L-8,7 L-8,6 L-7,6 L-7,5 L-6,5 L-6,4 L-5,4 L-5,3 L-3,3 L-3,2 L-2,2 L-2,1 L0,1 Z M0,3 L0,4 L1,4 L1,3 Z M-26,26 L-25,26 L-25,27 L-26,27 Z M-27,27 L-26,27 L-26,28 L-27,28 Z " fill="#F4507C" transform="translate(493,297)"/>
<path d="M0,0 L25,0 L25,2 L24,2 L24,3 L23,3 L23,2 L22,2 L22,3 L18,3 L18,2 L16,2 L16,3 L15,3 L15,2 L11,2 L11,3 L10,3 L10,2 L7,2 L7,3 L6,3 L6,2 L5,2 L5,3 L3,3 L3,2 L2,2 L2,3 L1,3 L1,4 L0,4 L0,7 L-1,7 L-1,9 L-2,9 L-2,12 L-4,12 L-4,10 L-3,10 L-3,7 L-2,7 L-2,5 L-1,5 L-1,2 L0,2 Z " fill="#FC8D9E" transform="translate(1000,788)"/>
<path d="M0,0 L20,0 L20,1 L17,1 L17,2 L16,2 L16,1 L14,1 L14,2 L10,2 L10,1 L9,1 L9,2 L5,2 L5,1 L4,1 L4,2 L3,2 L3,3 L2,3 L2,13 L1,13 L1,15 L0,15 Z " fill="#FB708C" transform="translate(1083,789)"/>
<path d="M0,0 L3,0 L3,9 L2,9 L2,6 L1,6 L1,3 L-1,3 L-1,2 L-12,2 L-12,1 L0,1 Z " fill="#585C6B" transform="translate(819,888)"/>
<path d="M0,0 L1,0 L1,1 L2,1 L2,2 L3,2 L3,3 L5,3 L5,4 L6,4 L6,5 L-14,5 L-14,4 L0,4 L0,3 L1,3 L1,2 L0,2 Z " fill="#FB8A90" transform="translate(455,667)"/>
<path d="M0,0 L1,0 L1,1 L2,1 L2,2 L14,2 L14,1 L16,1 L16,2 L19,2 L19,3 L-1,3 L-1,1 L0,1 Z " fill="#F52F8E" transform="translate(957,902)"/>
<path d="M0,0 L1,0 L1,2 L0,2 L0,3 L-1,3 L-1,4 L-2,4 L-2,5 L-3,5 L-3,6 L-4,6 L-4,7 L-5,7 L-5,8 L-8,8 L-8,7 L-7,7 L-7,6 L-6,6 L-6,5 L-5,5 L-5,4 L-4,4 L-4,3 L-3,3 L-3,2 L-2,2 L-2,1 L0,1 Z " fill="#1E2337" transform="translate(691,827)"/>
<path d="M0,0 L3,0 L3,2 L4,2 L4,3 L5,3 L5,4 L6,4 L6,5 L7,5 L7,6 L8,6 L8,7 L7,7 L7,8 L6,8 L6,7 L5,7 L5,6 L4,6 L4,5 L3,5 L3,4 L2,4 L2,3 L1,3 L1,1 L0,1 Z " fill="#202335" transform="translate(356,856)"/>
<path d="M0,0 L1,0 L1,2 L2,2 L2,8 L1,8 L1,9 L0,9 L0,6 L-1,6 L-1,1 L0,1 Z " fill="#1F2335" transform="translate(355,846)"/>
<path d="M0,0 L1,0 L1,1 L2,1 L2,2 L1,2 L1,3 L0,3 L0,6 L-1,6 L-1,8 L-2,8 L-2,11 L-4,11 L-4,9 L-3,9 L-3,6 L-2,6 L-2,4 L-1,4 L-1,1 L0,1 Z " fill="#FB899A" transform="translate(1000,789)"/>
<path d="M0,0 L1,0 L1,4 L0,4 L0,5 L-1,5 L-1,6 L-3,6 L-3,5 L-2,5 L-2,3 L-1,3 L-1,2 L0,2 Z M-5,6 L-3,6 L-3,7 L-4,7 L-4,9 L-8,9 L-8,8 L-6,8 L-6,7 L-5,7 Z " fill="#2E3345" transform="translate(732,881)"/>
<path d="M0,0 L2,0 L2,1 L3,1 L3,2 L2,2 L2,3 L1,3 L1,4 L0,4 L0,5 L-1,5 L-1,6 L-3,6 L-3,7 L-5,7 L-5,6 L-4,6 L-4,5 L-3,5 L-3,4 L-2,4 L-2,3 L-1,3 L-1,2 L0,2 Z " fill="#2C3045" transform="translate(320,880)"/>
<path d="M0,0 L1,0 L1,2 L2,2 L2,7 L1,7 L1,8 L0,8 L0,9 L-1,9 L-1,3 L0,3 Z " fill="#2C3042" transform="translate(355,836)"/>
<path d="M0,0 L1,0 L1,2 L2,2 L2,3 L1,3 L1,4 L0,4 L0,5 L-1,5 L-1,7 L-2,7 L-2,9 L-3,9 L-3,11 L-5,11 L-5,9 L-4,9 L-4,8 L-3,8 L-3,6 L-2,6 L-2,4 L-1,4 L-1,2 L0,2 Z " fill="#202639" transform="translate(614,830)"/>
<path d="M0,0 L2,0 L2,1 L3,1 L3,2 L4,2 L4,3 L8,3 L8,4 L10,4 L10,5 L8,5 L8,6 L6,6 L6,5 L5,5 L5,4 L3,4 L3,3 L2,3 L2,2 L1,2 L1,1 L0,1 Z " fill="#1F2336" transform="translate(684,899)"/>
<path d="M0,0 L1,0 L1,4 L2,4 L2,5 L1,5 L1,6 L0,6 L0,8 L-1,8 L-1,10 L-3,10 L-3,8 L-2,8 L-2,6 L-1,6 L-1,3 L0,3 Z " fill="#F887A2" transform="translate(992,808)"/>
<path d="M0,0 L2,0 L2,1 L3,1 L3,4 L5,4 L5,5 L6,5 L6,6 L7,6 L7,7 L6,7 L6,8 L5,8 L5,7 L4,7 L4,6 L3,6 L3,5 L2,5 L2,3 L1,3 L1,2 L0,2 Z " fill="#F64D81" transform="translate(760,710)"/>
<path d="M0,0 L1,0 L1,1 L2,1 L2,2 L5,2 L5,3 L10,3 L10,5 L8,5 L8,4 L4,4 L4,3 L0,3 L0,2 L-2,2 L-2,1 L0,1 Z " fill="#FC8B8B" transform="translate(429,666)"/>
<path d="M0,0 L12,0 L12,1 L8,1 L8,2 L7,2 L7,3 L6,3 L6,2 L3,2 L3,1 L0,1 Z " fill="#F65F7E" transform="translate(488,492)"/>
<path d="M0,0 L1,0 L1,1 L2,1 L2,3 L3,3 L3,4 L4,4 L4,6 L5,6 L5,7 L6,7 L6,8 L5,8 L5,9 L4,9 L4,8 L3,8 L3,6 L2,6 L2,4 L1,4 L1,3 L0,3 Z " fill="#1A1E32" transform="translate(237,892)"/>
<path d="M0,0 L1,0 L1,1 L2,1 L2,3 L3,3 L3,5 L4,5 L4,7 L1,7 L1,5 L0,5 Z " fill="#E0E0E3" transform="translate(558,825)"/>
</svg>
